<?xml version="1.0" encoding="UTF-8" standalone="no"?>
<!-- Created with Inkscape (http://www.inkscape.org/) -->

<svg
   width="1000"
   height="300"
   viewBox="0 0 264.58333 79.375"
   version="1.1"
   id="svg1"
   xml:space="preserve"
   xmlns="http://www.w3.org/2000/svg"
   xmlns:svg="http://www.w3.org/2000/svg"><defs
     id="defs1" /><path
     d="M 44.672204,26.189734 34.622828,49.015873 h -5.954021 v 3.558442 H 45.806303 L 57.399307,26.189734 Z m -7.938692,0 h -8.064705 v 3.558441 h 8.064705 z m 0,7.435131 h -8.064705 v 3.558452 h 8.064705 z M 74.841213,38.68186 V 65.066464 H 100.45294 V 38.68186 Z m 16.44443,23.202248 H 84.00851 V 41.864229 h 7.277133 z m 43.809837,-25.975636 10.17541,-9.113099 h -8.37974 L 116.54028,44.99263 h 8.34825 l 3.08731,-2.748387 v 10.935721 h 11.68755 V 36.834237 h -5.639 z m 50.51979,-17.578593 5.6705,-0.462888 v -3.558455 l -28.73049,2.314442 v 3.558456 l 10.89995,-0.867917 -1.26011,3.847761 -0.25203,0.810042 h -9.38781 v 3.558456 h 8.2537 l -4.25286,13.163358 h 11.87652 l 4.22138,-13.163358 h 8.63175 V 23.97132 h -7.46615 l 0.25201,-0.810042 z m 46.26691,14.505296 h -2.77223 v -6.393643 h 2.77223 z m -1.60664,1.070429 h -2.33121 v -7.464072 h -19.05914 v 3.558452 h 10.80543 l -12.50658,22.826129 h 12.7271 l 5.85951,-10.675337 5.73351,10.675337 h 4.41037 l -7.93869,-14.725596 z m 5.63899,-1.070429 h -2.80374 v -6.393643 h 2.80374 z"
     id="text1"
     style="font-size:26.5051px;line-height:0;font-family:'Naisho Moji';-inkscape-font-specification:'Naisho Moji';letter-spacing:11.0437px;fill:#76562b;stroke-width:0.276095"
     aria-label="シロイチズ" /></svg>
